<?xml version="1.0" encoding="UTF-8"?>
<svg width="798px" height="514px" viewBox="0 0 798 514" version="1.1" xmlns="http://www.w3.org/2000/svg" xmlns:xlink="http://www.w3.org/1999/xlink">
    <!-- Generator: Sketch 52.5 (67469) - http://www.bohemiancoding.com/sketch -->
    <title>Group</title>
    <desc>Created with Sketch.</desc>
    <g id="Page-1" stroke="none" stroke-width="1" fill="none" fill-rule="evenodd">
        <g id="Desktop-Copy" transform="translate(-108.000000, -332.000000)" fill-rule="nonzero">
            <g id="Group" transform="translate(108.000000, 332.000000)">
                <path d="M335.006734,226.661357 C489.894592,157.493409 644.099378,128.795784 797.621094,140.568483 C741.9823,210.121788 696.414648,264.877058 660.918137,304.834294 C625.421627,344.791531 575.828116,397.703415 512.137605,463.569949 C436.586233,477.305853 357.586099,487.887729 275.137205,495.315576 C174.332329,504.39712 82.6199271,510.619199 0,513.981813 C68.4499648,391.60279 180.118876,295.829304 335.006734,226.661357 Z" id="Rectangle" fill="#BF0000"></path>
                <path d="M88.2519531,176.251953 C136.576869,176.251953 178.400391,140.576869 178.400391,92.2519531 C178.400391,43.9270375 132.055384,0 83.7304687,0 C35.4055531,0 0,43.9270375 0,92.2519531 C0,140.576869 39.9270375,176.251953 88.2519531,176.251953 Z" id="Oval" fill="#2015AD"></path>
            </g>
        </g>
    </g>
</svg>