<?xml version="1.0" encoding="UTF-8"?>
<svg width="552px" height="472px" viewBox="0 0 552 472" version="1.1" xmlns="http://www.w3.org/2000/svg" xmlns:xlink="http://www.w3.org/1999/xlink">
    <!-- Generator: Sketch 52.5 (67469) - http://www.bohemiancoding.com/sketch -->
    <title>Group</title>
    <desc>Created with Sketch.</desc>
    <g id="Page-1" stroke="none" stroke-width="1" fill="none" fill-rule="evenodd">
        <g id="Desktop-Copy-12" transform="translate(-225.000000, -265.000000)" fill-rule="nonzero">
            <g id="Group" transform="translate(225.000000, 265.000000)">
                <path d="M0,0 L295.212889,9.89482278 C298.929037,43.4371569 298.929037,76.8274964 295.212889,110.065841 C291.496741,143.304186 284.002017,176.948906 272.728718,211 L10.8332086,211 L0,0 Z" id="Rectangle" fill="#BD2323"></path>
                <path d="M309.31927,212 L478.19614,230.760363 C484.06538,265.913774 487,300.132389 487,333.416206 C487,366.700024 484.06538,399.561288 478.19614,432 L320.188564,421.080401 C314.701395,380.948863 311.078298,343.964879 309.31927,310.128448 C307.560243,276.292017 307.560243,243.582534 309.31927,212 Z" id="Rectangle-Copy-2" fill="#0C34B1"></path>
                <path d="M99.9736553,120.978719 C151.05495,122.14083 198.468342,122.155018 242.213833,121.021284 C285.959323,119.887549 331.017908,117.476802 377.389587,113.789041 L384.47089,177.473722 C345.838737,174.295966 302.272094,172.134401 253.770962,170.989027 C205.26983,169.843652 156.688937,169.829114 108.028283,170.945413 L99.9736553,120.978719 Z" id="Rectangle-Copy-5" fill="#1D9729" transform="translate(242.222273, 145.631382) rotate(-45.000000) translate(-242.222273, -145.631382) "></path>
                <path d="M478.256291,405.659995 C573.004865,405.688348 587.957616,379.66467 587.952506,362.589467 C587.947397,345.514265 552.723534,328.555513 457.97496,328.527159 C363.226387,328.498806 303.335845,353.260502 303.340955,370.335704 C303.346065,387.410907 383.507718,405.631641 478.256291,405.659995 Z" id="Oval" fill="#FFE40C" transform="translate(445.646731, 367.093576) rotate(-45.000000) translate(-445.646731, -367.093576) "></path>
            </g>
        </g>
    </g>
</svg>