<?xml version="1.0" encoding="UTF-8"?>
<svg width="505px" height="505px" viewBox="0 0 505 505" version="1.1" xmlns="http://www.w3.org/2000/svg" xmlns:xlink="http://www.w3.org/1999/xlink">
    <!-- Generator: Sketch 52.5 (67469) - http://www.bohemiancoding.com/sketch -->
    <title>Group</title>
    <desc>Created with Sketch.</desc>
    <g id="Page-1" stroke="none" stroke-width="1" fill="none" fill-rule="evenodd">
        <g id="Desktop-Copy-5" transform="translate(-258.000000, -260.000000)" fill-rule="nonzero">
            <g id="Group" transform="translate(238.000000, 238.000000)">
                <path d="M278.728516,526.123047 C417.904273,526.123047 524.605469,413.23728 524.605469,274.061523 C524.605469,134.885766 411.692359,22 272.516602,22 C133.340845,22 20,131.843774 20,271.019531 C20,410.195288 139.552759,526.123047 278.728516,526.123047 Z" id="Oval" fill="#231F20"></path>
                <path d="M279.658837,484.123047 C395.666467,484.123047 484.605469,390.046983 484.605469,274.061523 C484.605469,158.076064 390.48863,64 274.481,64 C158.47337,64 64,155.540947 64,271.526406 C64,387.511865 163.651207,484.123047 279.658837,484.123047 Z" id="Oval" fill="#1E4C3F" transform="translate(274.302734, 274.061523) rotate(-112.000000) translate(-274.302734, -274.061523) "></path>
                <path d="M273.869313,452.123047 C372.776658,452.123047 448.605469,371.930334 448.605469,273.061523 C448.605469,174.192713 368.362068,94 269.454722,94 C170.547377,94 90,172.031717 90,270.900528 C90,369.769339 174.961967,452.123047 273.869313,452.123047 Z" id="Oval" fill="#17795D" transform="translate(269.302734, 273.061523) rotate(53.000000) translate(-269.302734, -273.061523) "></path>
                <path d="M278.079788,422.123047 C359.886849,422.123047 422.605469,355.813686 422.605469,274.061523 C422.605469,192.309361 356.235506,126 274.428445,126 C192.621383,126 126,190.522488 126,272.27465 C126,354.026813 196.272726,422.123047 278.079788,422.123047 Z" id="Oval" fill="#12A67C" transform="translate(274.302734, 274.061523) rotate(87.000000) translate(-274.302734, -274.061523) "></path>
                <path d="M278.976228,397.698612 C348.647604,397.698612 402.062216,341.241952 402.062216,271.637088 C402.062216,202.032225 345.53792,145.575565 275.866544,145.575565 C206.195168,145.575565 149.456748,200.510857 149.456748,270.115721 C149.456748,339.720584 209.304852,397.698612 278.976228,397.698612 Z" id="Oval" fill="#ABDEC3" transform="translate(275.759482, 271.637088) rotate(-14.000000) translate(-275.759482, -271.637088) "></path>
                <path d="M276.628081,365.123047 C326.992685,365.123047 365.605469,324.341139 365.605469,274.061523 C365.605469,223.781908 324.744732,183 274.380128,183 C224.015525,183 183,222.682936 183,272.962552 C183,323.242167 226.263478,365.123047 276.628081,365.123047 Z" id="Oval" fill="#F7FAE6" transform="translate(274.302734, 274.061523) rotate(86.000000) translate(-274.302734, -274.061523) "></path>
            </g>
        </g>
    </g>
</svg>