<?xml version="1.0" encoding="UTF-8"?>
<svg width="724px" height="560px" viewBox="0 0 724 560" version="1.1" xmlns="http://www.w3.org/2000/svg" xmlns:xlink="http://www.w3.org/1999/xlink">
    <!-- Generator: Sketch 52.5 (67469) - http://www.bohemiancoding.com/sketch -->
    <title>Group</title>
    <desc>Created with Sketch.</desc>
    <g id="Page-1" stroke="none" stroke-width="1" fill="none" fill-rule="evenodd">
        <g id="Desktop" transform="translate(-150.000000, -252.000000)" fill-rule="nonzero">
            <g id="Group" transform="translate(150.000000, 252.000000)">
                <polygon id="Rectangle-Copy-3" fill="#F9ED5A" points="3.78026459e-13 5.68434189e-14 723.239911 36.2825355 723.239911 536.621413 6.992095e-13 559.117188"></polygon>
                <path d="M118.561914,388.734954 C96.531799,288.429816 113.84832,188.410836 126.434952,146.07963 C139.021585,103.748424 154.188714,93 189.283173,93 C224.377633,93 248.829016,100.883295 271.180842,176.056678 C293.532668,251.23006 284.069371,346.698826 271.180842,405.381483 C258.292313,464.06414 231.475432,489.34146 196.380972,489.34146 C161.286513,489.34146 140.592029,489.040091 118.561914,388.734954 Z" id="Rectangle-Copy" fill="#E66D6D"></path>
                <polygon id="Rectangle-Copy-4" fill="#3C73CB" points="444.156956 122.727848 595.246294 114 592.899531 450.88289 438 450.88289"></polygon>
            </g>
        </g>
    </g>
</svg>