<?xml version="1.0" encoding="UTF-8"?>
<svg width="703px" height="520px" viewBox="0 0 703 520" version="1.1" xmlns="http://www.w3.org/2000/svg" xmlns:xlink="http://www.w3.org/1999/xlink">
    <!-- Generator: Sketch 52.5 (67469) - http://www.bohemiancoding.com/sketch -->
    <title>Group</title>
    <desc>Created with Sketch.</desc>
    <g id="Page-1" stroke="none" stroke-width="1" fill="none" fill-rule="evenodd">
        <g id="Desktop-Copy-6" transform="translate(-150.000000, -270.000000)" fill-rule="nonzero">
            <g id="Group" transform="translate(145.000000, 269.000000)">
                <polygon id="Rectangle" fill="#014387" transform="translate(636.775621, 244.899640) rotate(-14.000000) translate(-636.775621, -244.899640) " points="620.99627 13.7765218 652.29343 16.4053962 652.554971 476.022758 622.894862 475.088921"></polygon>
                <polygon id="Rectangle" fill="#4B4693" transform="translate(502.208939, 277.258623) rotate(12.000000) translate(-502.208939, -277.258623) " points="489.617561 50.5496734 513.367023 48.9677724 518.495007 503.81117 485.922872 505.549474"></polygon>
                <polygon id="Rectangle" fill="#CB7385" transform="translate(295.542098, 293.353021) rotate(23.000000) translate(-295.542098, -293.353021) " points="278.898778 63.0892333 312.185417 62.9453817 308.13203 522.854981 279.929283 523.760659"></polygon>
                <polygon id="Rectangle" fill="#97499E" transform="translate(383.221018, 293.866931) rotate(36.000000) translate(-383.221018, -293.866931) " points="367.039703 66.3846107 399.705186 68.2535894 397.078812 518.350112 366.736849 521.349252"></polygon>
                <polygon id="Rectangle" fill="#FF9B6A" transform="translate(225.838580, 361.450474) rotate(49.000000) translate(-225.838580, -361.450474) " points="210.492226 133.013052 241.313382 132.644799 239.368577 588.373934 210.363779 590.25615"></polygon>
                <polygon id="Rectangle" fill="#FFECAB" transform="translate(251.950427, 122.008810) rotate(62.000000) translate(-251.950427, -122.008810) " points="236.674011 -107.015786 267.222996 -107.652141 267.226843 350.995875 238.551386 351.669761"></polygon>
                <polygon id="Rectangle" fill="#FFC48A" transform="translate(223.202864, 216.403195) rotate(74.000000) translate(-223.202864, -216.403195) " points="206.508225 -8.86715698 239.897503 -10.3711338 239.046098 443.177524 212.198327 440.237052"></polygon>
            </g>
        </g>
    </g>
</svg>