<?xml version="1.0" encoding="UTF-8"?>
<svg width="410px" height="406px" viewBox="0 0 410 406" version="1.1" xmlns="http://www.w3.org/2000/svg" xmlns:xlink="http://www.w3.org/1999/xlink">
    <!-- Generator: Sketch 52.5 (67469) - http://www.bohemiancoding.com/sketch -->
    <title>Group</title>
    <desc>Created with Sketch.</desc>
    <g id="Page-1" stroke="none" stroke-width="1" fill="none" fill-rule="evenodd">
        <g id="Desktop-Copy-7" transform="translate(-319.000000, -321.000000)" fill-rule="nonzero">
            <g id="Group" transform="translate(305.000000, 308.000000)">
                <path d="M53.1763748,83.1230469 C72.0985202,83.1230469 86.6054688,67.4207418 86.6054688,48.0615234 C86.6054688,28.7023051 71.2539569,13 52.3318115,13 C33.4096661,13 18,28.2791668 18,47.6383852 C18,66.9976035 34.2542294,83.1230469 53.1763748,83.1230469 Z" id="Oval-Copy" fill="#FFECAB" transform="translate(52.302734, 48.061523) rotate(-270.000000) translate(-52.302734, -48.061523) "></path>
                <path d="M220.176375,83.1230469 C239.09852,83.1230469 253.605469,67.4207418 253.605469,48.0615234 C253.605469,28.7023051 238.253957,13 219.331811,13 C200.409666,13 185,28.2791668 185,47.6383852 C185,66.9976035 201.254229,83.1230469 220.176375,83.1230469 Z" id="Oval-Copy-2" fill="#AADE9C" transform="translate(219.302734, 48.061523) rotate(-210.000000) translate(-219.302734, -48.061523) "></path>
                <path d="M387.176375,83.1230469 C406.09852,83.1230469 420.605469,67.4207418 420.605469,48.0615234 C420.605469,28.7023051 405.253957,13 386.331811,13 C367.409666,13 352,28.2791668 352,47.6383852 C352,66.9976035 368.254229,83.1230469 387.176375,83.1230469 Z" id="Oval-Copy-3" fill="#74C5A5" transform="translate(386.302734, 48.061523) rotate(-195.000000) translate(-386.302734, -48.061523) "></path>
                <path d="M49.9351639,251.364258 C68.8573092,251.364258 83.3642578,235.661953 83.3642578,216.302734 C83.3642578,196.943516 68.0127459,181.241211 49.0906005,181.241211 C30.1684551,181.241211 14.7587891,196.520378 14.7587891,215.879596 C14.7587891,235.238814 31.0130185,251.364258 49.9351639,251.364258 Z" id="Oval-Copy-2" fill="#46A8B8" transform="translate(49.061523, 216.302734) rotate(-300.000000) translate(-49.061523, -216.302734) "></path>
                <path d="M224.935164,251.364258 C243.857309,251.364258 258.364258,235.661953 258.364258,216.302734 C258.364258,196.943516 243.012746,181.241211 224.090601,181.241211 C205.168455,181.241211 189.758789,196.520378 189.758789,215.879596 C189.758789,235.238814 206.013018,251.364258 224.935164,251.364258 Z" id="Oval-Copy-4" fill="#4087BD" transform="translate(224.061523, 216.302734) rotate(-120.000000) translate(-224.061523, -216.302734) "></path>
                <path d="M389.176375,251.364258 C408.09852,251.364258 422.605469,235.661953 422.605469,216.302734 C422.605469,196.943516 407.253957,181.241211 388.331811,181.241211 C369.409666,181.241211 354,196.520378 354,215.879596 C354,235.238814 370.254229,251.364258 389.176375,251.364258 Z" id="Oval-Copy-6" fill="#5E669B" transform="translate(388.302734, 216.302734) rotate(-60.000000) translate(-388.302734, -216.302734) "></path>
                <path d="M49.9351639,418.364258 C68.8573092,418.364258 83.3642578,402.661953 83.3642578,383.302734 C83.3642578,363.943516 68.0127459,348.241211 49.0906005,348.241211 C30.1684551,348.241211 14.7587891,363.520378 14.7587891,382.879596 C14.7587891,402.238814 31.0130185,418.364258 49.9351639,418.364258 Z" id="Oval-Copy-3" fill="#594977" transform="translate(49.061523, 383.302734) rotate(-315.000000) translate(-49.061523, -383.302734) "></path>
                <path d="M224.935164,418.364258 C243.857309,418.364258 258.364258,402.661953 258.364258,383.302734 C258.364258,363.943516 243.012746,348.241211 224.090601,348.241211 C205.168455,348.241211 189.758789,363.520378 189.758789,382.879596 C189.758789,402.238814 206.013018,418.364258 224.935164,418.364258 Z" id="Oval-Copy-5" fill="#443453" transform="translate(224.061523, 383.302734) rotate(-90.000000) translate(-224.061523, -383.302734) "></path>
                <path d="M389.176375,418.364258 C408.09852,418.364258 422.605469,402.661953 422.605469,383.302734 C422.605469,363.943516 407.253957,348.241211 388.331811,348.241211 C369.409666,348.241211 354,363.520378 354,382.879596 C354,402.238814 370.254229,418.364258 389.176375,418.364258 Z" id="Oval-Copy-7" fill="#1F252E" transform="translate(388.302734, 383.302734) rotate(-345.000000) translate(-388.302734, -383.302734) "></path>
            </g>
        </g>
    </g>
</svg>